<svg height="96" width="96" xmlns="http://www.w3.org/2000/svg" xmlns:xlink="http://www.w3.org/1999/xlink"><linearGradient id="a"><stop offset="0" stop-color="#fefefe"/><stop offset="1" stop-color="#fefefe" stop-opacity="0"/></linearGradient><linearGradient id="b" gradientUnits="userSpaceOnUse" x1="36.357143" x2="36.357143" xlink:href="#a" y1="6" y2="63.893143"/><radialGradient id="c" cx="48" cy="90.171875" gradientTransform="matrix(1.1573129 0 0 .99590774 -7.551021 .197132)" gradientUnits="userSpaceOnUse" r="42" xlink:href="#a"/><linearGradient id="d" gradientUnits="userSpaceOnUse" x1="48" x2="48" y1="90" y2="5.987717"><stop offset="0" stop-color="#0f0f0f"/><stop offset="1" stop-color="#323232"/></linearGradient><linearGradient id="e" gradientTransform="matrix(1.0058652 0 0 .994169 100 0)" gradientUnits="userSpaceOnUse" x1="45.447727" x2="45.447727" y1="92.539597" y2="7.01654"><stop offset="0"/><stop offset="1" stop-opacity=".588235"/></linearGradient><linearGradient id="f" gradientTransform="matrix(1.0238095 0 0 1.0119048 -1.142857 -98.071429)" gradientUnits="userSpaceOnUse" x1="32.251034" x2="32.251034" xlink:href="#e" y1="6.131708" y2="90.238609"/><linearGradient id="g" gradientTransform="translate(0 -97)" gradientUnits="userSpaceOnUse" x1="32.251034" x2="32.251034" xlink:href="#e" y1="6.131708" y2="90.238609"/><linearGradient id="h" gradientTransform="matrix(1.2780477 0 0 1.0861418 10.695168 10.071192)" gradientUnits="userSpaceOnUse" x1="1.469178" x2="1.469178" y1="6.684318" y2="62.054248"><stop offset="0" stop-color="#ffd600"/><stop offset="1" stop-color="#ff2600"/></linearGradient><path d="m12-95.03125c-5.5110903 0-10.03125 4.52016-10.03125 10.03125v71c0 5.5110902 4.5201598 10.03125 10.03125 10.03125h72c5.51109 0 10.03125-4.5201597 10.03125-10.03125v-71c0-5.51109-4.52016-10.03125-10.03125-10.03125z" fill="url(#f)" opacity=".08" transform="scale(1 -1)"/><path d="m12-94.03125c-4.971633 0-9.03125 4.059617-9.03125 9.03125v71c0 4.9716329 4.0596171 9.03125 9.03125 9.03125h72c4.971633 0 9.03125-4.059617 9.03125-9.03125v-71c0-4.971633-4.059617-9.03125-9.03125-9.03125z" fill="url(#f)" opacity=".1" transform="scale(1 -1)"/><path d="m12-93c-4.4091333 0-8 3.590867-8 8v71c0 4.4091333 3.5908667 8 8 8h72c4.409133 0 8-3.5908667 8-8v-71c0-4.409133-3.590867-8-8-8z" fill="url(#f)" opacity=".2" transform="scale(1 -1)"/><rect fill="url(#f)" height="85" opacity=".3" rx="7" transform="scale(1 -1)" width="86" x="5" y="-92"/><rect fill="url(#g)" height="84" opacity=".45" rx="6" transform="scale(1 -1)" width="84" x="6" y="-91"/><rect fill="url(#d)" height="84" rx="6" width="84" x="6" y="6"/><path d="m12 6c-3.324 0-6 2.676-6 6v2 68 2c0 .334721.04135.6507.09375.96875.0487.295596.09704.596915.1875.875.00988.03038.020892.0636.03125.09375.098865.287771.2348802.547452.375.8125.1445918.273507.3156161.535615.5.78125s.3737765.473472.59375.6875c.439947.428056.94291.814526 1.5 1.09375.278545.139612.5734731.246947.875.34375-.2562018-.100222-.4867109-.236272-.71875-.375-.00741-.0044-.023866.0045-.03125 0-.031933-.0193-.062293-.04251-.09375-.0625-.120395-.0767-.2310226-.163513-.34375-.25-.1061728-.0808-.2132809-.161112-.3125-.25-.1779299-.161433-.3474596-.345388-.5-.53125-.1075789-.130255-.2183939-.265285-.3125-.40625-.025089-.03838-.038446-.08587-.0625-.125-.064763-.103032-.1302275-.204517-.1875-.3125-.1010083-.194706-.2056748-.415701-.28125-.625-.00796-.02181-.023589-.04055-.03125-.0625-.0318251-.09195-.0358045-.186831-.0625-.28125-.0303323-.106618-.0703894-.203031-.09375-.3125-.0728786-.341512-.125-.698205-.125-1.0625v-2-68-2c0-2.781848 2.2181517-5 5-5h2 68 2c2.781848 0 5 2.218152 5 5v2 68 2c0 .364295-.05212.720988-.125 1.0625-.04415.206893-.08838.397658-.15625.59375-.0077.02195-.0233.04069-.03125.0625-.06274.173739-.138383.367449-.21875.53125-.04158.0828-.07904.169954-.125.25-.0546.09721-.126774.18835-.1875.28125-.09411.140965-.204921.275995-.3125.40625-.143174.17445-.303141.346998-.46875.5-.01117.0102-.01998.02115-.03125.03125-.138386.125556-.285091.234436-.4375.34375-.102571.07315-.204318.153364-.3125.21875-.0074.0045-.02384-.0044-.03125 0-.232039.138728-.462548.274778-.71875.375.301527-.0968.596455-.204138.875-.34375.55709-.279224 1.060053-.665694 1.5-1.09375.219973-.214028.409366-.441865.59375-.6875s.355408-.507743.5-.78125c.14012-.265048.276135-.524729.375-.8125.01041-.03078.02133-.06274.03125-.09375.09046-.278085.1388-.579404.1875-.875.0524-.31805.09375-.634029.09375-.96875v-2-68-2c0-3.324-2.676-6-6-6z" fill="url(#b)" opacity=".2"/><path d="m12 90c-3.324 0-6-2.676-6-6v-2-68-2c0-.334721.04135-.6507.09375-.96875.0487-.295596.09704-.596915.1875-.875.00988-.03038.020892-.0636.03125-.09375.098865-.287771.2348802-.547452.375-.8125.1445918-.273507.3156161-.535615.5-.78125s.3737765-.473472.59375-.6875c.439947-.428056.94291-.814526 1.5-1.09375.278545-.139612.5734731-.246947.875-.34375-.2562018.100222-.4867109.236272-.71875.375-.00741.0044-.023866-.0045-.03125 0-.031933.0193-.062293.04251-.09375.0625-.120395.0767-.2310226.163513-.34375.25-.1061728.0808-.2132809.161112-.3125.25-.1779299.161433-.3474596.345388-.5.53125-.1075789.130255-.2183939.265285-.3125.40625-.025089.03838-.038446.08587-.0625.125-.064763.103032-.1302275.204517-.1875.3125-.1010083.194706-.2056748.415701-.28125.625-.00796.02181-.023589.04055-.03125.0625-.0318251.09195-.0358045.186831-.0625.28125-.0303323.106618-.0703894.203031-.09375.3125-.0728786.341512-.125.698205-.125 1.0625v2 68 2c0 2.781848 2.2181517 5 5 5h2 68 2c2.781848 0 5-2.218152 5-5v-2-68-2c0-.364295-.05212-.720988-.125-1.0625-.04415-.206893-.08838-.397658-.15625-.59375-.0077-.02195-.0233-.04069-.03125-.0625-.06274-.173739-.138383-.367449-.21875-.53125-.04158-.0828-.07904-.169954-.125-.25-.0546-.09721-.126774-.18835-.1875-.28125-.09411-.140965-.204921-.275995-.3125-.40625-.143174-.17445-.303141-.346998-.46875-.5-.01117-.0102-.01998-.02115-.03125-.03125-.138386-.125556-.285091-.234436-.4375-.34375-.102571-.07315-.204318-.153364-.3125-.21875-.0074-.0045-.02384.0044-.03125 0-.232039-.138728-.462548-.274778-.71875-.375.301527.0968.596455.204138.875.34375.55709.279224 1.060053.665694 1.5 1.09375.219973.214028.409366.441865.59375.6875s.355408.507743.5.78125c.14012.265048.276135.524729.375.8125.01041.03078.02133.06274.03125.09375.09046.278085.1388.579404.1875.875.0524.31805.09375.634029.09375.96875v2 68 2c0 3.324-2.676 6-6 6z" fill="url(#c)" opacity=".1"/><use height="100%" opacity=".15" transform="translate(0 2.356388)" width="100%" xlink:href="#i"/><path id="i" d="m48.065981 14.91215c-8.58346.08396-17.196104.620736-18.814265 1.546383-3.236319 1.851321-18.484094 28.025011-18.446101 31.663961.03812 3.638948 15.871333 29.544978 19.14564 31.332586 3.274335 1.787584 34.355424 1.48313 37.591742-.368193 3.236323-1.85132 18.484098-28.025012 18.44609-31.663963-.038002-3.638932-15.834497-29.581788-19.108811-31.369396-1.637169-.893796-10.230797-1.225381-18.814295-1.141378zm-.220904 10.89831c3.990122-.03833 7.86643.06366 10.309183.331344l-10.272354 11.450591-10.677388-11.192838c2.422054-.333498 6.504996-.549486 10.640559-.589097zm20.4343 11.597848c2.707832 4.412184 5.069001 8.709854 5.080967 9.830525.01332 1.244053-2.778372 6.488612-5.743718 11.413749l-10.640561-9.462366zm-40.610852.294533 10.309181 11.487375-9.646457 9.278273c-2.924677-4.704073-5.546852-9.555503-5.5596-10.750997-.01214-1.127965 2.270509-5.523084 4.896876-10.014651zm20.213381 19.918833 11.561015 10.861466c-4.843591.793104-18.978643.921204-22.937939.147279z" stroke-width="1.178192"/><path d="m47.624167 17.342194c-8.078974.07681-16.14983.552582-17.672912 1.399101-3.046099 1.693035-17.414096 25.648406-17.378349 28.976197.03571 3.327787 14.922403 27.010064 18.004293 28.644815 3.081868 1.634776 32.336505 1.398493 35.382603-.294531 3.046102-1.693034 17.414114-25.648425 17.378352-28.976193-.035766-3.327792-14.922375-27.046894-18.004261-28.681666-1.540939-.817378-9.63075-1.144549-17.709726-1.067723zm.07377 5.964597c6.317462-.06172 12.602.226238 13.806959.883642.07234.03951.169424.150497.25772.220926l-13.291591 14.837867-.589097.62591-.552273-.62591-13.843795-14.506521c.128462-.116447.268945-.237793.368188-.294534 1.19099-.680847 7.526323-1.0796 13.843767-1.14138zm21.281102 11.156031c3.397725 5.491955 6.61267 11.372968 6.627334 12.776011.01584 1.520263-3.6108 8.350535-7.17961 14.248779l-13.070678-11.671487-.62591-.552251.589097-.552283zm-42.15724.03672 12.77605 14.211958.515449.55227-.55227.515459-12.113322 11.671494c-3.589868-5.733118-7.127346-12.215216-7.142834-13.696466-.01495-1.432818 3.168459-7.601709 6.516881-13.254669zm21.06022 20.94975.515452.515466 14.543323 13.659676c-.374703.430471-.691605.752796-.920471.883623-2.38195 1.361737-25.240812 1.646229-27.650734.331387-.268876-.146691-.708975-.563427-1.178202-1.104573l14.13827-13.770031z" fill="url(#h)" stroke-width="1.178192"/></svg>